# xmcd
#
# Track frame offsets:
#	180
#	15030
#	25632
#	39812
#	60774
#	69875
#	86841
#	106106
#	124173
#	133918
#	150782
#	171429
#	183786
#	196154
#
# Disc length: 2931 seconds
#
# Revision: 0
# Processed by: cddbd v1.4PL0 Copyright (c) Steve Scherf et al.
# Submitted via: dBpowerAMP V4.0
#
DISCID=950b710e
DTITLE=Wheatstone Bridge - Wheatstone Bridge
DYEAR=1998
DGENRE=Bluegrass
TTITLE0=Hayride
TTITLE1=I've Just Seen a Face
TTITLE2=Scapin Out on the Roof
TTITLE3=Brokedown Palace
TTITLE4=Strike While the Irons Hot
TTITLE5=Father of the Bride
TTITLE6=Smells Like Teen Spirit
TTITLE7=Mary Frith
TTITLE8=The Letter
TTITLE9=What a Ways We've Come
TTITLE10=Hendrix Medley
TTITLE11=Why Don't You Love Me
TTITLE12=Lady Be Good
TTITLE13=Bozeman Pass
EXTD=info by l. renn.
EXTT0=
EXTT1=
EXTT2=
EXTT3=
EXTT4=
EXTT5=
EXTT6=
EXTT7=
EXTT8=
EXTT9=
EXTT10=
EXTT11=
EXTT12=
EXTT13=
PLAYORDER=
